:FULLY-SPECIFIED
:FORCE-ALL-JOINTS-BE-3DOF
:DEGREES
442
root 3.7935 16.0196 -8.92744 -4.97035 -0.990474 -13.7466
lfemur -27.6271 1.91037 -7.87363
ltibia 52.8703 0 0
lfoot -22.4075 2.99765 0
ltoes -1.68017 0 0
rfemur -41.4554 4.2288 5.11899
rtibia 53.1008 0 0
rfoot 6.10968 3.94298 0
rtoes -14.7395 0 0
lowerback 6.44622 1.79092 1.99496
upperback 1.65256 2.50098 -0.276339
thorax -1.72378 1.25575 -1.58574
lowerneck -7.06876 0.604618 6.53294
upperneck 5.30677 0.288823 -1.4304
head 3.17496 0.230089 -1.69333
lclavicle -2.18984e-14 7.09347e-15 0
lhumerus -44.9108 -25.2701 100.913
lradius 50.6044 0 0
lwrist 10.5359 0 0
lhand -13.8229 -0.299823 0
lfingers 7.12502 0 0
lthumb 12.2677 28.8856 0
rclavicle -2.18984e-14 7.09347e-15 0
rhumerus -45.3448 12.2479 -89.9314
rradius 75.0493 0 0
rwrist 15.1147 0 0
rhand -23.8029 -20.5382 0
rfingers 7.12502 0 0
rthumb 2.65094 -770.061 0
443
root 3.81985 16.0275 -8.8733 -5.41775 0.5553 -14.151
lfemur -27.5935 1.55163 -8.12334
ltibia 52.7639 0 0
lfoot -22.4479 2.81831 0
ltoes -1.36899 0 0
rfemur -41.7535 4.27212 5.1798
rtibia 53.4275 0 0
rfoot 6.14501 4.075 0
rtoes -14.7604 0 0
lowerback 6.439 1.75325 1.93684
upperback 1.63061 2.44816 -0.248216
thorax -1.74511 1.22982 -1.52016
lowerneck -7.10354 0.424015 6.38575
upperneck 5.37213 0.05664 -1.37465
head 3.19697 0.115008 -1.66421
lclavicle -2.17234e-14 6.95746e-15 0
lhumerus -44.9788 -25.4116 101.181
lradius 50.7022 0 0
lwrist 10.4274 0 0
lhand -13.4395 -0.281325 0
lfingers 7.12502 0 0
lthumb 12.6358 28.8641 0
rclavicle -2.17234e-14 6.95746e-15 0
rhumerus -45.2445 12.735 -90.0179
rradius 75.3575 0 0
rwrist 15.2729 0 0
rhand -23.382 -20.4384 0
rfingers 7.12502 0 0
rthumb 3.05656 -769.939 0
444
root 3.8462 16.0353 -8.81916 -5.86515 2.10107 -14.5555
lfemur -27.5599 1.1929 -8.37305
ltibia 52.6575 0 0
lfoot -22.4883 2.63896 0
ltoes -1.05781 0 0
rfemur -42.0516 4.31545 5.24062
rtibia 53.7543 0 0
rfoot 6.18034 4.20702 0
rtoes -14.7812 0 0
lowerback 6.43178 1.71557 1.87872
upperback 1.60867 2.39535 -0.220093
thorax -1.76644 1.2039 -1.45458
lowerneck -7.13832 0.243412 6.23856
upperneck 5.43749 -0.175543 -1.31891
head 3.21898 -7.36842e-05 -1.63509
lclavicle -2.15485e-14 6.82145e-15 0
lhumerus -45.0468 -25.553 101.449
lradius 50.8 0 0
lwrist 10.3188 0 0
lhand -13.0561 -0.262827 0
lfingers 7.12502 0 0
lthumb 13.004 28.8427 0
rclavicle -2.15485e-14 6.82145e-15 0
rhumerus -45.1443 13.2222 -90.1044
rradius 75.6657 0 0
rwrist 15.4312 0 0
rhand -22.961 -20.3387 0
rfingers 7.12502 0 0
rthumb 3.46219 -769.817 0
445
root 3.87255 16.0431 -8.76501 -6.31254 3.64685 -14.9599
lfemur -27.5262 0.834161 -8.62275
ltibia 52.5511 0 0
lfoot -22.5287 2.45962 0
ltoes -0.746635 0 0
rfemur -42.3496 4.35877 5.30143
rtibia 54.081 0 0
rfoot 6.21567 4.33904 0
rtoes -14.8021 0 0
lowerback 6.42456 1.6779 1.8206
upperback 1.58673 2.34253 -0.191971
thorax -1.78777 1.17797 -1.38901
lowerneck -7.1731 0.0628082 6.09137
upperneck 5.50285 -0.407726 -1.26316
head 3.24099 -0.115155 -1.60597
lclavicle -2.13736e-14 6.68544e-15 0
lhumerus -45.1148 -25.6945 101.717
lradius 50.8977 0 0
lwrist 10.2103 0 0
lhand -12.6727 -0.24433 0
lfingers 7.12502 0 0
lthumb 13.3721 28.8212 0
rclavicle -2.13736e-14 6.68544e-15 0
rhumerus -45.0441 13.7093 -90.1909
rradius 75.9739 0 0
rwrist 15.5894 0 0
rhand -22.5401 -20.239 0
rfingers 7.12502 0 0
rthumb 3.86781 -769.694 0
446
root 3.89891 16.051 -8.71087 -6.75994 5.19262 -15.3643
lfemur -27.4926 0.475426 -8.87246
ltibia 52.4447 0 0
lfoot -22.5691 2.28027 0
ltoes -0.435456 0 0
rfemur -42.6477 4.4021 5.36225
rtibia 54.4077 0 0
rfoot 6.25099 4.47105 0
rtoes -14.8229 0 0
lowerback 6.41734 1.64022 1.76248
upperback 1.56479 2.28971 -0.163848
thorax -1.80911 1.15205 -1.32343
lowerneck -7.20788 -0.117795 5.94418
upperneck 5.56821 -0.639909 -1.20742
head 3.263 -0.230236 -1.57685
lclavicle -2.11987e-14 6.54943e-15 0
lhumerus -45.1828 -25.836 101.985
lradius 50.9955 0 0
lwrist 10.1018 0 0
lhand -12.2893 -0.225832 0
lfingers 7.12502 0 0
lthumb 13.7402 28.7997 0
rclavicle -2.11987e-14 6.54943e-15 0
rhumerus -44.9439 14.1965 -90.2774
rradius 76.2821 0 0
rwrist 15.7476 0 0
rhand -22.1191 -20.1393 0
rfingers 7.12502 0 0
rthumb 4.27344 -769.572 0
447
root 3.92526 16.0588 -8.65673 -7.20734 6.73839 -15.7688
lfemur -27.4589 0.11669 -9.12217
ltibia 52.3382 0 0
lfoot -22.6095 2.10093 0
ltoes -0.124277 0 0
rfemur -42.9458 4.44542 5.42306
rtibia 54.7344 0 0
rfoot 6.28632 4.60307 0
rtoes -14.8437 0 0
lowerback 6.41012 1.60255 1.70435
upperback 1.54285 2.23689 -0.135725
thorax -1.83044 1.12612 -1.25786
lowerneck -7.24266 -0.298399 5.79698
upperneck 5.63357 -0.872093 -1.15168
head 3.28501 -0.345317 -1.54773
lclavicle -2.10238e-14 6.41342e-15 0
lhumerus -45.2507 -25.9775 102.254
lradius 51.0933 0 0
lwrist 9.99323 0 0
lhand -11.9059 -0.207335 0
lfingers 7.12502 0 0
lthumb 14.1084 28.7783 0
rclavicle -2.10238e-14 6.41342e-15 0
rhumerus -44.8436 14.6836 -90.3639
rradius 76.5903 0 0
rwrist 15.9058 0 0
rhand -21.6981 -20.0396 0
rfingers 7.12502 0 0
rthumb 4.67906 -769.45 0
